Land_normalized_Precision Landing04_filtered_grf
version=1
nRows=12
nColumns=37
inDegrees=yes
endheader
time		1_ground_force_vx		1_ground_force_vy		1_ground_force_vz		1_ground_force_px		1_ground_force_py		1_ground_force_pz		1_ground_torque_x		1_ground_torque_y		1_ground_torque_z		2_ground_force_vx		2_ground_force_vy		2_ground_force_vz		2_ground_force_px		2_ground_force_py		2_ground_force_pz		2_ground_torque_x		2_ground_torque_y		2_ground_torque_z		3_ground_force_vx		3_ground_force_vy		3_ground_force_vz		3_ground_force_px		3_ground_force_py		3_ground_force_pz		3_ground_torque_x		3_ground_torque_y		3_ground_torque_z		4_ground_force_vx		4_ground_force_vy		4_ground_force_vz		4_ground_force_px		4_ground_force_py		4_ground_force_pz		4_ground_torque_x		4_ground_torque_y		4_ground_torque_z		
1.172000		-25.493998		744.437363		108.363734		0.126738		0.000000		0.245657		-0.539420		15.751335		2.292837		11.282509		550.137064		47.628863		-0.114791		0.000000		0.294127		0.205865		10.038030		0.869056		1.347444		-0.919436		-0.532537		0.352142		1.256333		1.892854		-0.007472		-0.000154		0.009809		-4.442279		0.591879		3.449503		-0.289040		1.265000		1.901328		-0.032177		0.004287		0.024986		
1.175182		-25.815286		732.203026		105.034274		0.127838		0.000000		0.245993		-0.546706		15.506330		2.224379		11.836021		565.263723		41.470995		-0.114927		0.000000		0.295801		0.186040		8.885010		0.651973		1.338316		-0.884725		-0.480545		0.352164		1.256324		1.892798		-0.006347		-0.000406		0.005898		-4.470003		0.658425		3.475948		-0.289026		1.264997		1.901261		-0.031293		0.004610		0.024334		
1.178364		-27.937875		724.000550		101.974331		0.129087		0.000000		0.246576		-0.584757		15.153926		2.134410		12.265897		581.716198		34.482583		-0.115223		0.000000		0.297632		0.159287		7.554282		0.447911		1.355447		-0.916780		-0.479558		0.352193		1.256318		1.892744		-0.005515		0.000518		0.002290		-4.444363		0.737604		3.373582		-0.289007		1.264999		1.901191		-0.031507		0.005229		0.023916		
1.181545		-31.707754		720.791742		99.179342		0.130462		0.000000		0.247481		-0.649650		14.768179		2.032072		12.687413		598.955169		26.902731		-0.115716		0.000000		0.299551		0.129346		6.106263		0.274317		1.391867		-1.004173		-0.536825		0.352224		1.256316		1.892694		-0.005315		0.002553		-0.000548		-4.323655		0.810074		3.182756		-0.288985		1.265003		1.901123		-0.027039		0.140448		-0.002773		
1.184727		-36.720102		722.873304		96.595093		0.131858		0.000000		0.248625		-0.732767		14.425615		1.927656		13.413843		616.041732		19.167102		-0.116422		0.000000		0.301447		0.101412		4.657836		0.145045		1.428996		-1.103663		-0.647031		0.352255		1.256315		1.892651		-0.006051		0.004857		-0.002581		-4.112861		0.854180		2.968934		-0.288964		1.265007		1.901061		-0.026470		0.142406		-0.004530		
1.187909		-42.383283		729.706313		94.141361		0.133132		0.000000		0.249837		-0.822015		14.152680		1.825882		14.662806		631.758158		11.758098		-0.117296		0.000000		0.303202		0.077160		3.324864		0.061939		1.438627		-1.172631		-0.778580		0.352281		1.256312		1.892612		-0.007745		0.006706		-0.003926		-3.865558		0.845622		2.796785		-0.288946		1.265008		1.901008		-0.025658		0.141869		-0.004433		
1.191091		-48.017504		740.138529		91.757365		0.134195		0.000000		0.250983		-0.905409		13.956040		1.730182		16.366055		644.816311		5.129901		-0.118241		0.000000		0.304708		0.055572		2.189896		0.017458		1.395225		-1.197145		-0.875352		0.352300		1.256304		1.892576		-0.009981		0.008172		-0.004466		-3.657926		0.767680		2.708005		-0.288934		1.265006		1.900965		-0.024783		0.138830		-0.002964		
1.194273		-52.933545		752.551320		89.422397		0.135025		0.000000		0.252010		-0.975181		13.864165		1.647427		18.183310		654.095423		-0.281362		-0.119145		0.000000		0.305880		0.036294		1.305967		-0.000529		1.291214		-1.193677		-0.875995		0.352312		1.256289		1.892538		-0.011954		0.010028		-0.003816		-3.556307		0.630474		2.707619		-0.288925		1.265001		1.900927		-0.024271		0.134256		-0.001357		
1.197455		-56.568956		765.159472		87.181552		0.135635		0.000000		0.252885		-1.027942		13.904091		1.584220		19.709964		658.812797		-4.034445		-0.119911		0.000000		0.306651		0.021539		0.720019		-0.004405		1.144465		-1.184381		-0.747462		0.352319		1.256271		1.892498		-0.012858		0.012917		-0.001682		-3.587139		0.476467		2.767981		-0.288917		1.264995		1.900891		-0.024425		0.129536		-0.000738		
1.200636		-58.564273		776.275837		85.181912		0.136024		0.000000		0.253559		-1.060802		14.061047		1.542939		20.683807		658.524835		-5.679164		-0.120475		0.000000		0.306960		0.015451		0.491954		-0.004242		0.992386		-1.172598		-0.510171		0.352320		1.256252		1.892452		-0.012354		0.016549		0.001694		-3.724956		0.362792		2.847850		-0.288908		1.264990		1.900856		-0.025203		0.125944		-0.001430		
1.203818		-58.806273		784.577164		83.656117		0.136166		0.000000		0.253969		-1.071552		14.296365		1.524358		21.069240		653.266468		-4.910094		-0.120821		0.000000		0.306771		0.021718		0.673331		-0.005054		0.875826		-1.143586		-0.239301		0.352317		1.256235		1.892406		-0.010838		0.019597		0.005288		-3.899885		0.330740		2.910896		-0.288898		1.264988		1.900822		-0.026258		0.124312		-0.002778		
1.207000		-57.353413		789.311018		82.838276		0.136024		0.000000		0.254071		-1.061214		14.604679		1.532763		20.967974		643.463697		-1.689845		-0.120974		0.000000		0.306079		0.041641		1.277871		-0.003356		0.819007		-1.086178		-0.028438		0.352309		1.256222		1.892362		-0.009174		0.020435		0.007667		-4.032520		0.382635		2.937914		-0.288886		1.264989		1.900792		-0.027145		0.124723		-0.003641		
